Coordinates
version=1
nRows=10
nColumns=63
inDegrees=yes

Units are S.I. units (second, meters, Newtons, ...)
If the header above contains a line with 'inDegrees', this indicates whether rotational values are in degrees (yes) or radians (no).

endheader
time	pelvis_tilt	pelvis_list	pelvis_rotation	pelvis_tx	pelvis_ty	pelvis_tz	hip_flexion_r	hip_adduction_r	hip_rotation_r	knee_angle_r	knee_angle_r_beta	ankle_angle_r	subtalar_angle_r	mtp_angle_r	hip_flexion_l	hip_adduction_l	hip_rotation_l	knee_angle_l	knee_angle_l_beta	ankle_angle_l	subtalar_angle_l	mtp_angle_l	L5_S1_Flex_Ext	L5_S1_Lat_Bending	L5_S1_axial_rotation	L4_L5_Flex_Ext	L4_L5_Lat_Bending	L4_L5_axial_rotation	L3_L4_Flex_Ext	L3_L4_Lat_Bending	L3_L4_axial_rotation	L2_L3_Flex_Ext	L2_L3_Lat_Bending	L2_L3_axial_rotation	L1_L2_Flex_Ext	L1_L2_Lat_Bending	L1_L2_axial_rotation	L1_T12_Flex_Ext	L1_T12_Lat_Bending	L1_T12_axial_rotation	Abs_r3	Abs_r2	Abs_r1	Abs_t1	Abs_t2	neck_flexion	neck_bending	neck_rotation	arm_flex_r	arm_add_r	arm_rot_r	elbow_flex_r	pro_sup_r	wrist_flex_r	wrist_dev_r	arm_flex_l	arm_add_l	arm_rot_l	elbow_flex_l	pro_sup_l	wrist_flex_l	wrist_dev_l
      4.38983051	      0.23733728	     -2.30308680	    104.84014252	      0.25176360	      0.84048945	      0.67108748	     -1.22793173	      1.03791720	    -20.15458614	      5.42949442	      0.09476255	     25.96302748	     -1.91294342	      0.00000000	     -1.50352561	     -0.30614411	     24.11002112	      4.39038522	      0.07662668	     21.45295202	     -8.68355966	      0.00000000	      0.07371109	      0.81648907	     -2.35917072	      0.13688886	      1.08593046	     -2.50661889	      0.12109994	      1.98521153	     -2.50661889	      0.08424440	      1.98521153	     -2.06427438	      0.06844811	      1.66498451	     -1.91682621	      0.04211851	      1.26474157	     -1.76937804	      0.52651091	      9.23628767	    -13.12099982	      0.00000000	      0.00000000	     26.73983655	     -2.18738206	      0.45735460	     15.61363399	    -10.71224588	     65.38531442	     23.29533759	     47.02855162	     -4.86540895	      1.74545064	     17.87602698	     -0.77529924	     26.83102476	     30.24071149	     79.75191391	    -15.86767548	     -2.26759167
      4.40677966	      0.13051229	     -2.43535410	    105.50685276	      0.25136301	      0.84047478	      0.67118421	     -1.05885411	      0.91984053	    -20.04073758	      5.74402923	      0.10025222	     25.54088478	     -3.29590783	      0.00000000	     -1.20861632	     -0.21044005	     22.92610947	      4.69413927	      0.08192819	     22.25581123	     -6.18830720	      0.00000000	      0.08150030	      0.77700696	     -2.29492936	      0.15135422	      1.03341926	     -2.43836245	      0.13389685	      1.88921473	     -2.43836245	      0.09314670	      1.88921473	     -2.00806319	      0.07568118	      1.58447260	     -1.86463011	      0.04656927	      1.20358379	     -1.72119702	      0.58214853	      8.78965816	    -12.76370863	      0.00000000	      0.00000000	     26.56384734	     -3.44800714	     -1.70578250	     12.71835715	     -9.73072576	     50.08881700	     27.07750992	     58.61325562	     -1.21709589	      6.56034861	     18.21418618	      0.28921175	     33.63826812	     30.82201250	     73.85495232	    -14.44595305	     -3.15875037
      4.42372881	      0.09803670	     -2.67620520	    105.93648826	      0.25120447	      0.84077360	      0.67172122	     -0.68643134	      0.77658431	    -20.48820708	      6.16985571	      0.10768430	     25.26314906	     -3.65004678	      0.00000000	     -0.83477966	     -0.11030341	     22.78735009	      4.90849829	      0.08566946	     22.25754752	     -5.60645266	      0.00000000	      0.08922676	      0.75144995	     -2.25752082	      0.16570302	      0.99942843	     -2.39861587	      0.14659065	      1.82707541	     -2.39861587	      0.10197727	      1.82707541	     -1.97533072	      0.08285597	      1.53235674	     -1.83423567	      0.05098417	      1.16399597	     -1.69314062	      0.63733785	      8.50055213	    -12.55565356	      0.00000000	      0.00000000	     26.33188757	     -4.48832874	     -3.26048586	     11.84399762	     -9.15183810	     47.32282577	     29.74824468	     56.02108904	      0.46648414	      9.60208292	     17.41627945	      1.32272413	     36.97780084	     32.05909241	     72.55469464	    -11.23055316	     -1.50599097
      4.44067797	      0.15664462	     -2.94012025	    106.17422034	      0.25121505	      0.84127420	      0.67254629	     -0.18158762	      0.67096651	    -20.94650438	      6.68103491	      0.11660606	     25.09439213	     -3.72075443	      0.00000000	     -0.35862590	     -0.09764226	     21.73302565	      5.20327116	      0.09081421	     22.30032384	     -4.12282861	      0.00000000	      0.09662809	      0.74279573	     -2.15845947	      0.17944803	      0.98791832	     -2.29336319	      0.15875030	      1.80603354	     -2.29336319	      0.11043625	      1.80603354	     -1.88865203	      0.08972885	      1.51470906	     -1.75374832	      0.05521329	      1.15059059	     -1.61884460	      0.69020481	      8.40265388	    -12.00470403	      0.00000000	      0.00000000	     26.05873594	     -5.52096211	     -4.59339836	     10.82313531	     -8.79112966	     44.57396651	     32.30848454	     53.70963621	      0.59723906	     12.77665536	     17.40808602	      1.52506062	     45.49215382	     32.67989547	     64.79757234	     -8.25788904	     -0.28037377
      4.45762712	      0.30180812	     -3.21613718	    106.30252790	      0.25131854	      0.84174951	      0.67316529	      0.36386248	      0.63063313	    -21.62746772	      7.15451465	      0.12486984	     25.10182369	     -3.31101923	      0.00000000	      0.07002254	     -0.15771806	     21.46340236	      5.36252976	      0.09359380	     21.98607819	     -3.80676730	      0.00000000	      0.10772516	      0.74392965	     -2.09654338	      0.20005640	      0.98942644	     -2.22757734	      0.17698167	      1.80879055	     -2.22757734	      0.12311909	      1.80879055	     -1.83447546	      0.10003359	      1.51702135	     -1.70344150	      0.06155416	      1.15234703	     -1.57240754	      0.76947006	      8.41548100	    -11.66034533	      0.00000000	      0.00000000	     25.85843843	     -6.22378432	     -5.54258686	     10.19869984	     -8.72541162	     43.95382955	     34.45260062	     49.62196592	     -0.96875668	     15.43419782	     17.10729864	      1.73318422	     51.86876450	     33.03297067	     59.23879954	     -4.45527679	      2.20821614
      4.47457627	      0.46500786	     -3.45439186	    106.31063788	      0.25162479	      0.84211310	      0.67350428	      0.87171640	      0.61736942	    -22.29181203	      7.59748738	      0.13260117	     25.24760216	     -2.69760797	      0.00000000	      0.40694437	     -0.24955202	     21.44230984	      5.44203018	      0.09498134	     21.59686503	     -3.95100522	      0.00000000	      0.11764700	      0.74399427	     -2.05231304	      0.21848224	      0.98951238	     -2.18058260	      0.19328225	      1.80894766	     -2.18058260	      0.13445875	      1.80894766	     -1.79577391	      0.10924700	      1.51715311	     -1.66750434	      0.06722349	      1.15244712	     -1.53923478	      0.84034073	      8.41621195	    -11.41434942	      0.00000000	      0.00000000	     25.69165095	     -6.53863208	     -6.30557982	      9.80097292	     -8.80028664	     44.36255000	     35.95983113	     45.93870099	     -3.37452688	     16.84566122	     17.08723057	      1.83591004	     58.04804575	     32.76811396	     53.37075598	     -1.08316430	      4.70496989
      4.49152542	      0.63473536	     -3.65239315	    106.14383174	      0.25211645	      0.84228850	      0.67354342	      1.35784376	      0.61948516	    -22.75577486	      8.07371686	      0.14091294	     25.46508496	     -2.06852597	      0.00000000	      0.65228758	     -0.35751453	     21.58999230	      5.45760948	      0.09525325	     21.20879162	     -4.51165076	      0.00000000	      0.12650726	      0.74295195	     -2.00127838	      0.23493663	      0.98812609	     -2.12635828	      0.20783877	      1.80641337	     -2.12635828	      0.14458515	      1.80641337	     -1.75111858	      0.11747464	      1.51502762	     -1.62603869	      0.07228625	      1.15083257	     -1.50095879	      0.90362869	      8.40442104	    -11.13050998	      0.00000000	      0.00000000	     25.50986932	     -6.59786048	     -6.96519832	      9.58230812	     -8.96274984	     45.59303323	     36.68172101	     43.16111955	     -5.57914942	     16.77210634	     17.35221121	      1.92053009	     63.93972380	     32.00235896	     47.38859227	      1.05561732	      6.55783337
      4.50847458	      0.75987177	     -3.84292268	    105.79045341	      0.25280462	      0.84212737	      0.67318584	      1.80269438	      0.61714422	    -22.73472669	      8.52737028	      0.14883069	     25.67641533	     -1.81457615	      0.00000000	      0.83160911	     -0.44197335	     21.47924215	      5.43187988	      0.09480419	     21.09284908	     -4.82383109	      0.00000000	      0.13304221	      0.73720240	     -1.93823936	      0.24707269	      0.98047919	     -2.05937932	      0.21857504	      1.79243391	     -2.05937932	      0.15205394	      1.79243391	     -1.69595944	      0.12354299	      1.50330313	     -1.57481948	      0.07602032	      1.14192651	     -1.45367952	      0.95030719	      8.33938094	    -10.77990587	      0.00000000	      0.00000000	     25.48831667	     -6.37978042	     -7.28825886	      9.26590143	     -9.01022508	     46.28779261	     36.73264574	     43.22238702	     -6.37042538	     15.98123535	     17.00920262	      2.02292889	     65.67714085	     31.29128826	     46.58173921	      2.48472797	      8.55945618
      4.52542373	      0.89670894	     -3.96257905	    105.27712995	      0.25356338	      0.84190942	      0.67279996	      2.14381305	      0.60941400	    -23.20968446	      8.96214877	      0.15641900	     26.01050518	     -0.61956627	      0.00000000	      0.84143199	     -0.54788780	     21.99586814	      5.20888941	      0.09091227	     20.82448553	     -6.19820540	      0.00000000	      0.13440827	      0.73625439	     -1.79916005	      0.24960961	      0.97921834	     -1.91160755	      0.22081935	      1.79012892	     -1.91160755	      0.15361522	      1.79012892	     -1.57426505	      0.12481152	      1.50136995	     -1.46181754	      0.07680089	      1.14045805	     -1.34937004	      0.96006486	      8.32865691	    -10.00638846	      0.00000000	      0.00000000	     25.44708199	     -6.47415874	     -7.97246937	      9.14582874	     -9.29517860	     48.18849416	     36.33459737	     41.29140730	     -6.71688521	     13.61906650	     17.85486140	      1.98574830	     71.79843249	     30.16135983	     40.77879871	      2.67437091	      7.42364249
      4.54237288	      0.98702193	     -4.16751435	    104.71760828	      0.25441194	      0.84127099	      0.67235821	      2.51578780	      0.60620496	    -23.01621977	      9.28196377	      0.16200083	     26.27895522	     -0.22321201	      0.00000000	      0.98319156	     -0.60632485	     21.80452449	      5.07600042	      0.08859292	     21.03454775	     -6.51515050	      0.00000000	      0.14097345	      0.73411695	     -1.66266257	      0.26180180	      0.97637555	     -1.76657898	      0.23160528	      1.78493196	     -1.76657898	      0.16111856	      1.78493196	     -1.45482975	      0.13090795	      1.49701129	     -1.35091334	      0.08055223	      1.13714716	     -1.24699693	      1.00695926	      8.30447779	     -9.24723042	      0.00000000	      0.00000000	     25.72626889	     -6.26722726	     -7.89032112	      8.69565346	     -9.45102142	     48.71083738	     35.88115007	     42.16911465	     -5.77433382	     11.43917570	     17.87594896	      1.94884658	     73.30037029	     29.43980968	     41.66662010	      3.13821922	      6.70047614
